# xmcd
#
# Track frame offsets: 
#        150
#        16529
#        39315
#        56423
#        80326
#        101737
#        118599
#        128521
#        149370
#        164747
#        184839
#        203431
#        219195
#        238624
#        258785
#        275949
#        293787
#
# Disc length: 4210 seconds
#
# Revision: 0
# Processed by: cddbd v1.5.2PL0 Copyright (c) Steve Scherf et al.
# Submitted via: ExactAudioCopy v1.0b4
#
DISCID=e9107011
DTITLE=Billy Flynn - Lonesome Highway
DYEAR=2017
DGENRE=Blues
TTITLE0=Good Navigator
TTITLE1=If It Wasn't For The Blues
TTITLE2=Small Town
TTITLE3=Lonesome Highway
TTITLE4=The ''In'' Crowd
TTITLE5=Never Had A Chance
TTITLE6=Waiting Game
TTITLE7=Hold On
TTITLE8=The Lucky Kind
TTITLE9=Jackson Street
TTITLE10=Long Long Time
TTITLE11=The Right Track
TTITLE12=You Are My Lover
TTITLE13=I Feel 'Um
TTITLE14=Blues Express
TTITLE15=Sufferin' With The Blues
TTITLE16=Christmas Blues
EXTD=
EXTT0=
EXTT1=
EXTT2=
EXTT3=
EXTT4=
EXTT5=
EXTT6=
EXTT7=
EXTT8=
EXTT9=
EXTT10=
EXTT11=
EXTT12=
EXTT13=
EXTT14=
EXTT15=
EXTT16=
PLAYORDER=
